<?xml version="1.0" encoding="utf-8"?>
<!-- Generator: Adobe Illustrator 23.0.4, SVG Export Plug-In . SVG Version: 6.00 Build 0)  -->
<svg version="1.1" xmlns="http://www.w3.org/2000/svg" xmlns:xlink="http://www.w3.org/1999/xlink" x="0px" y="0px"
	 viewBox="0 0 288 144" style="enable-background:new 0 0 288 144;" xml:space="preserve">
<style type="text/css">
	.st0{display:none;}
	.st1{display:inline;fill:#010101;stroke:#FFFFFF;stroke-width:0.8176;stroke-miterlimit:10;}
	.st2{display:inline;fill:#010101;stroke:#FFFFFF;stroke-miterlimit:10;}
	.st3{fill:#231F20;}
	.st4{fill:#FFFFFF;}
	.st5{fill:#DB192B;}
</style>
<g id="Layer_2" class="st0">
	<rect x="-0.79" y="0.48" class="st1" width="288.79" height="143.99"/>
</g>
<g id="Layer_1">
	<path class="st4" d="M242.59,83.46c-1.97-0.27-2.28-0.76-2.28-2.65l-0.01-7.97c1.72-1.56,3.14-2.32,4.38-2.32
		c1.69,0,2.18,0.86,2.18,2.41l0.01,7.87c0,1.9-0.31,2.38-2.27,2.66l0,1.07l8.87-0.02l0-1.07c-1.97-0.27-2.28-0.76-2.28-2.65
		l-0.01-8.25c0-2.76-1.18-4.73-4.67-4.72c-2.14,0-4.24,1.32-6.31,3.08l-0.01-3.31l-1.59,0l-5,3.29l0,0.76l2.38,0l0.02,9.18
		c0,1.9-0.31,2.38-2.27,2.66l0,1.07l8.87-0.02L242.59,83.46z M228.85,83.48c-2.24-0.34-2.56-0.82-2.56-2.96l-0.01-7.11
		c0.69-1.24,1.34-2.14,2.03-2.76c0,1.35,0.94,2.21,2.11,2.21s2.31-0.94,2.31-2.73c0-1.52-0.87-2.45-2.39-2.45
		c-1.69,0-3,1.42-4.24,3.42l-0.01-3.49l-1.52,0l-5,3.29l0,0.76l2.38,0l0.02,9.18c0,1.9-0.31,2.38-2.27,2.66l0,1.07l9.15-0.02
		L228.85,83.48z M207.23,74.13c0-2.8,1.17-4.45,3.44-4.46c1.59,0,2.59,1.13,3.01,3.38l-6.42,2.22
		C207.23,74.89,207.23,74.51,207.23,74.13 M218.05,81.46l-0.93-0.72c-0.93,1.07-2.34,1.8-3.97,1.8c-3.18,0.01-4.97-2.41-5.64-5.55
		l10.35-3.47c-0.21-3.66-2.91-5.65-6.33-5.65c-4.8,0.01-8.31,3.88-8.3,8.68c0.01,4.76,3.05,8.38,8.4,8.37
		C214.91,84.92,216.88,83.47,218.05,81.46 M202.1,83.04l-0.52-1.1c-0.93,0.42-1.76,0.62-2.48,0.63c-1.62,0-2.04-0.82-2.04-1.96
		l-0.02-10.39l4.38-0.01l0-1.97l-4.38,0.01l-0.01-3.21l-0.62,0l-6.2,4.08l0,1.1l2.52,0l0.02,11.29c0,2.24,1.28,3.45,3.8,3.44
		C198.52,84.95,200.45,84.29,202.1,83.04 M189.05,79.55c-0.01-3.21-2.66-4.21-5.15-5c-2.45-0.79-4.14-1.3-4.15-3.1
		c0-0.97,0.72-1.86,2.14-1.87c1.76,0,3.31,1.06,5.18,3.17l0.9-0.42l-1.32-4.28l-0.55,0l-0.62,0.52c-0.97-0.41-2.07-0.65-3.25-0.65
		c-3.66,0.01-6.04,2.12-6.03,5.29c0.01,3.21,2.66,4.14,5.15,4.96c2.45,0.82,4.14,1.3,4.15,3.13c0,1.14-0.86,2-2.52,2.01
		c-2.31,0-4.08-1.51-6.18-4.2l-0.93,0.35l1.36,5.38l0.59,0l1-0.73c1.14,0.55,2.42,0.86,3.83,0.86
		C186.16,84.97,189.06,82.9,189.05,79.55 M162.48,80.25c0-1.76,0.79-2.59,4.83-3.7l0.01,5c-0.96,0.76-1.83,1.11-2.69,1.11
		C163.28,82.66,162.48,81.94,162.48,80.25 M170.08,84.86c1.48,0,3.07-0.7,4.1-1.42l-0.31-0.97c-1.69,0.31-2.31,0.07-2.31-1.07
		l-0.02-9.21c0-2.76-1.22-4.24-5.12-4.24c-4.38,0.01-7.59,2.36-7.58,4.57c0,1.07,0.73,1.97,1.97,1.96c1.41,0,2.1-0.94,2.31-1.87
		c0.21-1.07-0.14-1.86-0.66-2.31c0.86-0.42,1.72-0.62,2.62-0.63c1.48,0,2.21,0.51,2.21,1.86L167.3,75c-6.17,1.53-9,2.88-9,6.16
		c0,2.52,1.63,3.86,4.18,3.86c1.62,0,3.48-0.7,5.07-1.94C167.8,84.21,168.6,84.86,170.08,84.86 M145.59,74.24
		c0-2.8,1.17-4.45,3.44-4.46c1.59,0,2.59,1.13,3.01,3.38l-6.42,2.22C145.6,75,145.6,74.62,145.59,74.24 M156.41,81.57l-0.93-0.72
		c-0.93,1.07-2.34,1.8-3.97,1.8c-3.18,0.01-4.97-2.41-5.64-5.55l10.35-3.47c-0.21-3.66-2.91-5.65-6.33-5.65
		c-4.8,0.01-8.31,3.88-8.3,8.68c0.01,4.76,3.05,8.38,8.4,8.37C153.27,85.03,155.24,83.58,156.41,81.57 M128.94,83.66
		c-1.97-0.27-2.28-0.76-2.28-2.65L126.64,73c1.65-1.52,2.93-2.28,4.38-2.29c1.69,0,2.18,0.86,2.18,2.41l0.01,7.87
		c0,1.9-0.31,2.38-2.27,2.66l0,1.07l8.87-0.02l0-1.07c-1.97-0.27-2.28-0.76-2.28-2.65l-0.01-8.25c0-2.76-1.18-4.73-4.67-4.72
		c-2.11,0-4.17,1.25-6.21,2.98l-0.02-13.67l-1.28,0l-5.55,3.63l0,0.76l2.52,0l0.03,19.29c0,1.9-0.31,2.38-2.27,2.66l0,1.07
		l8.87-0.02L128.94,83.66z M119.04,83.19l-0.52-1.1c-0.93,0.42-1.76,0.62-2.48,0.63c-1.62,0-2.04-0.82-2.04-1.96l-0.02-10.39
		l4.38-0.01l0-1.97l-4.38,0.01l-0.01-3.21l-0.62,0l-6.2,4.08l0,1.1l2.52,0l0.02,11.29c0,2.24,1.28,3.45,3.8,3.44
		C115.45,85.1,117.38,84.44,119.04,83.19 M102.13,83.7c-2.24-0.34-2.56-0.82-2.56-2.96l-0.01-7.11c0.69-1.24,1.34-2.14,2.03-2.76
		c0,1.35,0.94,2.21,2.11,2.21s2.31-0.94,2.31-2.73c0-1.52-0.87-2.45-2.39-2.45c-1.69,0-3,1.42-4.24,3.42l-0.01-3.49l-1.52,0l-5,3.29
		l0,0.76l2.38,0l0.02,9.18c0,1.9-0.31,2.38-2.27,2.66l0,1.07l9.15-0.02L102.13,83.7z M77.19,74.88c-0.01-3.11,1.34-5.08,4.17-5.08
		c3.66-0.01,4.74,4.48,4.74,8.58c0.01,3.11-1.34,5.08-4.17,5.08C78.28,83.47,77.2,78.99,77.19,74.88 M90.41,76.41
		c-0.01-4.52-3.05-8.31-8.61-8.3c-5.59,0.01-8.93,4.05-8.92,8.75c0.01,4.52,3.05,8.31,8.61,8.3C87.08,85.15,90.42,81.1,90.41,76.41
		 M67.89,65.65c-0.01-4.04,1.13-5.08,3.1-5.63l0-1.07l-8.35,0.01l0,1.07c1.97,0.55,3.11,1.58,3.12,5.62l0.02,12.15L48.14,60.06
		c-0.97-0.96-1.35-1.07-1.97-1.07L39.65,59l0,1.07c1.42,0.14,2.24,0.69,3.87,2.24c0.52,0.48,1,1.07,1,2.03l0.02,13.84
		c0.01,4.04-1.13,5.08-3.1,5.63l0,1.07l8.35-0.01l0-1.07c-1.97-0.55-3.11-1.58-3.12-5.62l-0.02-13.05l19.84,19.88l1.41,0
		L67.89,65.65z"/>
</g>
</svg>
