<?xml version="1.0" encoding="utf-8"?>
<!-- Generator: Adobe Illustrator 23.0.4, SVG Export Plug-In . SVG Version: 6.00 Build 0)  -->
<svg version="1.1" xmlns="http://www.w3.org/2000/svg" xmlns:xlink="http://www.w3.org/1999/xlink" x="0px" y="0px"
	 viewBox="0 0 432 143.99" style="enable-background:new 0 0 432 143.99;" xml:space="preserve">
<style type="text/css">
	.st0{display:none;}
	.st1{display:inline;fill:#010101;stroke:#FFFFFF;stroke-width:0.8176;stroke-miterlimit:10;}
	.st2{display:inline;fill:#010101;stroke:#FFFFFF;stroke-miterlimit:10;}
	.st3{fill:#231F20;}
	.st4{fill:#FFFFFF;}
	.st5{fill:#DB192B;}
</style>
<g id="Layer_2" class="st0">
</g>
<g id="Layer_1">
	<g>
		<path class="st5" d="M403.92,86.99l6.5-14.4c1.27-2.83,1.68-3.45,3.03-3.8l0-0.97l-6.8,0.01l0,0.97c2.24,0.48,2.49,1.62,1.46,4.04
			l-2.61,6.25l-3.26-7.35c-0.69-1.62-0.59-2.55,1.79-2.83l0-1.07l-9.08,0.02l0,1.07c1.07,0.27,1.49,0.72,2.42,2.65l5.79,12.41
			l-0.96,2.07c-0.55,1.21-1.07,2.11-1.65,2.63c-0.42-1.41-1.21-2.17-2.45-2.17c-1.24,0-2.31,0.83-2.31,2.45
			c0,1.62,1.32,2.83,2.87,2.82C400.86,91.79,402.24,90.68,403.92,86.99 M394.7,82.66l-0.52-1.1c-0.93,0.42-1.76,0.62-2.48,0.63
			c-1.62,0-2.04-0.82-2.04-1.96l-0.02-10.39l4.38-0.01l0-1.97l-4.38,0.01l-0.01-3.21l-0.62,0l-6.2,4.08l0,1.1l2.52,0l0.02,11.29
			c0,2.24,1.28,3.45,3.8,3.44C391.12,84.56,393.05,83.9,394.7,82.66 M381.59,83.16c-2.14-0.31-2.45-0.75-2.46-2.65l-0.02-13.22
			l-1.69,0l-5.07,3.32l0,0.76l2.45,0l0.02,9.15c0,1.9-0.34,2.35-2.45,2.66l0,1.07l9.21-0.02L381.59,83.16z M376.65,64.71
			c1.45,0,2.62-1.18,2.62-2.66c0-1.31-1.01-2.38-2.35-2.38c-1.52,0-2.66,1.18-2.65,2.63C374.27,63.64,375.27,64.71,376.65,64.71
			 M370.64,79.18c-0.01-3.21-2.66-4.21-5.15-5c-2.45-0.79-4.14-1.3-4.15-3.1c0-0.97,0.72-1.86,2.14-1.87c1.76,0,3.31,1.06,5.18,3.17
			l0.9-0.42l-1.32-4.28l-0.55,0l-0.62,0.52c-0.97-0.41-2.07-0.65-3.25-0.65c-3.66,0.01-6.04,2.12-6.03,5.29
			c0.01,3.21,2.66,4.14,5.15,4.96c2.45,0.82,4.14,1.3,4.15,3.13c0,1.14-0.86,2-2.52,2.01c-2.31,0-4.08-1.51-6.18-4.2l-0.93,0.35
			l1.36,5.38l0.59,0l1-0.73c1.14,0.55,2.42,0.86,3.83,0.86C367.75,84.6,370.65,82.53,370.64,79.18 M352.67,83.21
			c-2.24-0.34-2.56-0.82-2.56-2.96l-0.01-7.11c0.69-1.24,1.34-2.14,2.03-2.76c0,1.35,0.94,2.21,2.11,2.21
			c1.17,0,2.31-0.94,2.31-2.73c0-1.52-0.87-2.45-2.39-2.45c-1.69,0-3,1.42-4.24,3.42l-0.01-3.49l-1.52,0l-5,3.29l0,0.76l2.38,0
			l0.02,9.18c0,1.9-0.31,2.38-2.27,2.66l0,1.07l9.15-0.02L352.67,83.21z M331.05,73.86c0-2.8,1.17-4.45,3.44-4.46
			c1.59,0,2.59,1.13,3.01,3.38L331.08,75C331.05,74.62,331.05,74.24,331.05,73.86 M341.86,81.2l-0.93-0.72
			c-0.93,1.07-2.34,1.8-3.97,1.8c-3.18,0.01-4.97-2.41-5.64-5.55l10.35-3.47c-0.21-3.66-2.91-5.65-6.33-5.65
			c-4.8,0.01-8.31,3.88-8.3,8.68c0.01,4.76,3.05,8.38,8.4,8.37C338.73,84.65,340.69,83.2,341.86,81.2 M323.76,72.74
			c1.27-2.83,1.68-3.45,3.03-3.8l0-0.97l-6.8,0.01l0,0.97c2.24,0.48,2.49,1.62,1.46,4.04l-2.61,6.25l-3.26-7.35
			c-0.69-1.62-0.59-2.55,1.79-2.83l0-1.07L308.29,68l0,1.07c1.07,0.27,1.52,0.72,2.42,2.65l5.92,12.79l1.79,0L323.76,72.74z
			 M308.01,83.29c-2.14-0.31-2.45-0.75-2.46-2.65l-0.02-13.22l-1.69,0l-5.07,3.32l0,0.76l2.45,0l0.02,9.15
			c0,1.9-0.34,2.35-2.45,2.66l0,1.07l9.21-0.02L308.01,83.29z M303.08,64.84c1.45,0,2.62-1.18,2.62-2.66c0-1.31-1.01-2.38-2.35-2.38
			c-1.52,0-2.66,1.18-2.65,2.63C300.69,63.77,301.7,64.84,303.08,64.84 M285.68,83.33c-1.97-0.27-2.28-0.76-2.28-2.65l-0.01-7.97
			c1.72-1.56,3.14-2.32,4.38-2.32c1.69,0,2.18,0.86,2.18,2.41l0.01,7.87c0,1.9-0.31,2.38-2.27,2.66l0,1.07l8.87-0.02l0-1.07
			c-1.97-0.27-2.28-0.76-2.28-2.65l-0.01-8.25c0-2.76-1.18-4.73-4.67-4.72c-2.14,0-4.24,1.32-6.31,3.08l-0.01-3.31l-1.59,0l-5,3.29
			l0,0.76l2.38,0l0.02,9.18c0,1.9-0.31,2.38-2.27,2.66l0,1.07l8.87-0.02L285.68,83.33z M248.03,63.11l0.02,10.35
			c0.01,6.7,3.51,11.35,12.31,11.33c8.8-0.02,12.28-4.68,12.27-11.24l-0.01-8.32c-0.01-4.04,1.13-5.08,3.1-5.63l0-1.07l-8.35,0.01
			l0,1.07c1.97,0.55,3.11,1.58,3.12,5.62l0.01,8.32c0.01,5.83-3.06,8.53-8.85,8.54c-5.76,0.01-8.87-2.68-8.88-8.51l-0.02-10.49
			c0-2.62,0.75-3.07,2.93-3.39l0-1.14l-10.49,0.02l0,1.14C247.33,60.04,248.02,60.48,248.03,63.11"/>
		<path class="st5" d="M220.39,83.46c-1.97-0.27-2.28-0.76-2.28-2.65l-0.01-7.97c1.72-1.56,3.14-2.32,4.38-2.32
			c1.69,0,2.18,0.86,2.18,2.41l0.01,7.87c0,1.9-0.31,2.38-2.27,2.66l0,1.07l8.87-0.02l0-1.07c-1.97-0.27-2.28-0.76-2.28-2.65
			l-0.01-8.25c0-2.76-1.18-4.73-4.67-4.72c-2.14,0-4.24,1.32-6.31,3.08l-0.01-3.31l-1.59,0l-5,3.29l0,0.76l2.38,0l0.02,9.18
			c0,1.9-0.31,2.38-2.27,2.66l0,1.07l8.87-0.02L220.39,83.46z M206.65,83.48c-2.24-0.34-2.56-0.82-2.56-2.96l-0.01-7.11
			c0.69-1.24,1.34-2.14,2.03-2.76c0,1.35,0.94,2.21,2.11,2.21s2.31-0.94,2.31-2.73c0-1.52-0.87-2.45-2.39-2.45
			c-1.69,0-3,1.42-4.24,3.42l-0.01-3.49l-1.52,0l-5,3.29l0,0.76l2.38,0l0.02,9.18c0,1.9-0.31,2.38-2.27,2.66l0,1.07l9.15-0.02
			L206.65,83.48z M185.03,74.13c0-2.8,1.17-4.45,3.44-4.46c1.59,0,2.59,1.13,3.01,3.38l-6.42,2.22
			C185.03,74.89,185.03,74.51,185.03,74.13 M195.85,81.46l-0.93-0.72c-0.93,1.07-2.34,1.8-3.97,1.8c-3.18,0.01-4.97-2.41-5.64-5.55
			l10.35-3.47c-0.21-3.66-2.91-5.65-6.33-5.65c-4.8,0.01-8.31,3.88-8.3,8.68c0.01,4.76,3.05,8.38,8.4,8.37
			C192.71,84.92,194.68,83.47,195.85,81.46 M179.9,83.04l-0.52-1.1c-0.93,0.42-1.76,0.62-2.48,0.63c-1.62,0-2.04-0.82-2.04-1.96
			l-0.02-10.39l4.38-0.01l0-1.97l-4.38,0.01l-0.01-3.21l-0.62,0l-6.2,4.08l0,1.1l2.52,0l0.02,11.29c0,2.24,1.28,3.45,3.8,3.44
			C176.32,84.95,178.25,84.29,179.9,83.04 M166.85,79.55c-0.01-3.21-2.66-4.21-5.15-5c-2.45-0.79-4.14-1.3-4.15-3.1
			c0-0.97,0.72-1.86,2.14-1.87c1.76,0,3.31,1.06,5.18,3.17l0.9-0.42l-1.32-4.28l-0.55,0l-0.62,0.52c-0.97-0.41-2.07-0.65-3.25-0.65
			c-3.66,0.01-6.04,2.12-6.03,5.29c0.01,3.21,2.66,4.14,5.15,4.96c2.45,0.82,4.14,1.3,4.15,3.13c0,1.14-0.86,2-2.52,2.01
			c-2.31,0-4.08-1.51-6.18-4.2l-0.93,0.35l1.36,5.38l0.59,0l1-0.73c1.14,0.55,2.42,0.86,3.83,0.86
			C163.96,84.97,166.86,82.9,166.85,79.55 M140.28,80.25c0-1.76,0.79-2.59,4.83-3.7l0.01,5c-0.96,0.76-1.83,1.11-2.69,1.11
			C141.08,82.66,140.28,81.94,140.28,80.25 M147.88,84.86c1.48,0,3.07-0.7,4.1-1.42l-0.31-0.97c-1.69,0.31-2.31,0.07-2.31-1.07
			l-0.02-9.21c0-2.76-1.22-4.24-5.12-4.24c-4.38,0.01-7.59,2.36-7.58,4.57c0,1.07,0.73,1.97,1.97,1.96c1.41,0,2.1-0.94,2.31-1.87
			c0.21-1.07-0.14-1.86-0.66-2.31c0.86-0.42,1.72-0.62,2.62-0.63c1.48,0,2.21,0.51,2.21,1.86L145.1,75c-6.17,1.53-9,2.88-9,6.16
			c0,2.52,1.63,3.86,4.18,3.86c1.62,0,3.48-0.7,5.07-1.94C145.6,84.21,146.4,84.86,147.88,84.86 M123.39,74.24
			c0-2.8,1.17-4.45,3.44-4.46c1.59,0,2.59,1.13,3.01,3.38l-6.42,2.22C123.4,75,123.39,74.62,123.39,74.24 M134.21,81.57l-0.93-0.72
			c-0.93,1.07-2.34,1.8-3.97,1.8c-3.18,0.01-4.97-2.41-5.64-5.55l10.35-3.47c-0.21-3.66-2.91-5.65-6.33-5.65
			c-4.8,0.01-8.31,3.88-8.3,8.68c0.01,4.76,3.05,8.38,8.4,8.37C131.07,85.03,133.04,83.58,134.21,81.57 M106.74,83.66
			c-1.97-0.27-2.28-0.76-2.28-2.65L104.44,73c1.65-1.52,2.93-2.28,4.38-2.29c1.69,0,2.18,0.86,2.18,2.41l0.01,7.87
			c0,1.9-0.31,2.38-2.27,2.66l0,1.07l8.87-0.02l0-1.07c-1.97-0.27-2.28-0.76-2.28-2.65l-0.01-8.25c0-2.76-1.18-4.73-4.67-4.72
			c-2.11,0-4.17,1.25-6.21,2.98l-0.02-13.67l-1.28,0l-5.55,3.63l0,0.76l2.52,0l0.03,19.29c0,1.9-0.31,2.38-2.27,2.66l0,1.07
			l8.87-0.02L106.74,83.66z M96.83,83.19l-0.52-1.1c-0.93,0.42-1.76,0.62-2.48,0.63c-1.62,0-2.04-0.82-2.04-1.96l-0.02-10.39
			l4.38-0.01l0-1.97l-4.38,0.01l-0.01-3.21l-0.62,0l-6.2,4.08l0,1.1l2.52,0l0.02,11.29c0,2.24,1.28,3.45,3.8,3.44
			C93.25,85.1,95.18,84.44,96.83,83.19 M79.93,83.7c-2.24-0.34-2.56-0.82-2.56-2.96l-0.01-7.11c0.69-1.24,1.34-2.14,2.03-2.76
			c0,1.35,0.94,2.21,2.11,2.21s2.31-0.94,2.31-2.73c0-1.52-0.87-2.45-2.39-2.45c-1.69,0-3,1.42-4.24,3.42l-0.01-3.49l-1.52,0
			l-5,3.29l0,0.76l2.38,0l0.02,9.18c0,1.9-0.31,2.38-2.27,2.66l0,1.07l9.15-0.02L79.93,83.7z M54.99,74.88
			c-0.01-3.11,1.34-5.08,4.17-5.08c3.66-0.01,4.74,4.48,4.74,8.58c0.01,3.11-1.34,5.08-4.17,5.08C56.08,83.47,55,78.99,54.99,74.88
			 M68.21,76.41c-0.01-4.52-3.05-8.31-8.61-8.3c-5.59,0.01-8.93,4.05-8.92,8.75c0.01,4.52,3.05,8.31,8.61,8.3
			C64.88,85.15,68.22,81.1,68.21,76.41 M45.69,65.65c-0.01-4.04,1.13-5.08,3.1-5.63l0-1.07l-8.35,0.01l0,1.07
			c1.97,0.55,3.11,1.58,3.12,5.62l0.02,12.15L25.94,60.06c-0.97-0.96-1.35-1.07-1.97-1.07L17.45,59l0,1.07
			c1.42,0.14,2.24,0.69,3.87,2.24c0.52,0.48,1,1.07,1,2.03l0.02,13.84c0.01,4.04-1.13,5.08-3.1,5.63l0,1.07l8.35-0.01l0-1.07
			c-1.97-0.55-3.11-1.58-3.12-5.62l-0.02-13.05l19.84,19.88l1.41,0L45.69,65.65z"/>
	</g>
</g>
</svg>
