<?xml version="1.0" encoding="utf-8"?>
<!-- Generator: Adobe Illustrator 23.0.4, SVG Export Plug-In . SVG Version: 6.00 Build 0)  -->
<svg version="1.1" xmlns="http://www.w3.org/2000/svg" xmlns:xlink="http://www.w3.org/1999/xlink" x="0px" y="0px"
	 viewBox="0 0 288 288" style="enable-background:new 0 0 288 288;" xml:space="preserve">
<style type="text/css">
	.st0{display:none;}
	.st1{display:inline;fill:#010101;stroke:#FFFFFF;stroke-width:0.8176;stroke-miterlimit:10;}
	.st2{display:inline;fill:#010101;stroke:#FFFFFF;stroke-miterlimit:10;}
	.st3{fill:#231F20;}
	.st4{fill:#FFFFFF;}
	.st5{fill:#DB192B;}
</style>
<g id="Layer_2" class="st0">
</g>
<g id="Layer_1">
	<g>
		<path class="st3" d="M197.18,186.26l6.59-14.54c1.29-2.86,1.71-3.49,3.07-3.84v-0.98h-6.87v0.98c2.27,0.49,2.51,1.64,1.46,4.08
			l-2.65,6.31l-3.28-7.43c-0.7-1.64-0.59-2.58,1.81-2.86v-1.08h-9.17v1.08c1.08,0.28,1.5,0.73,2.44,2.69l5.82,12.55l-0.98,2.09
			c-0.56,1.22-1.08,2.13-1.67,2.65c-0.42-1.43-1.22-2.2-2.48-2.2s-2.34,0.84-2.34,2.48c0,1.64,1.33,2.86,2.89,2.86
			C194.08,191.1,195.47,189.99,197.18,186.26 M187.87,181.86l-0.52-1.12c-0.94,0.42-1.78,0.63-2.51,0.63
			c-1.64,0-2.06-0.84-2.06-1.99v-10.5h4.43v-1.99h-4.43v-3.24h-0.63l-6.28,4.11v1.12h2.55v11.4c0,2.27,1.29,3.49,3.84,3.49
			C184.24,183.78,186.2,183.12,187.87,181.86 M174.62,182.35c-2.16-0.31-2.48-0.77-2.48-2.69v-13.36h-1.71l-5.13,3.35v0.77h2.48
			v9.24c0,1.92-0.35,2.37-2.48,2.69v1.08h9.31V182.35z M169.67,163.69c1.46,0,2.65-1.19,2.65-2.69c0-1.33-1.01-2.41-2.37-2.41
			c-1.53,0-2.69,1.19-2.69,2.65C167.26,162.61,168.27,163.69,169.67,163.69 M163.56,178.3c0-3.24-2.69-4.25-5.2-5.06
			c-2.48-0.8-4.18-1.33-4.18-3.14c0-0.98,0.73-1.88,2.16-1.88c1.78,0,3.35,1.08,5.23,3.21l0.91-0.42l-1.33-4.32h-0.56l-0.63,0.52
			c-0.98-0.42-2.09-0.66-3.28-0.66c-3.7,0-6.1,2.13-6.1,5.34c0,3.24,2.69,4.18,5.2,5.02c2.48,0.84,4.18,1.33,4.18,3.17
			c0,1.15-0.87,2.02-2.55,2.02c-2.34,0-4.11-1.53-6.24-4.25l-0.94,0.35l1.36,5.44h0.59l1.01-0.73c1.15,0.56,2.44,0.87,3.87,0.87
			C160.63,183.78,163.56,181.69,163.56,178.3 M145.39,182.35c-2.27-0.35-2.58-0.84-2.58-3v-7.18c0.7-1.26,1.36-2.16,2.06-2.79
			c0,1.36,0.94,2.23,2.13,2.23s2.34-0.94,2.34-2.75c0-1.53-0.87-2.48-2.41-2.48c-1.71,0-3.03,1.43-4.29,3.45v-3.52h-1.53l-5.06,3.31
			v0.77h2.41v9.28c0,1.92-0.31,2.41-2.3,2.69v1.08h9.24V182.35z M123.56,172.86c0-2.82,1.19-4.5,3.49-4.5c1.6,0,2.62,1.15,3.03,3.42
			l-6.49,2.23C123.56,173.63,123.56,173.25,123.56,172.86 M134.48,180.29l-0.94-0.73c-0.94,1.08-2.37,1.81-4.01,1.81
			c-3.21,0-5.02-2.44-5.68-5.61l10.46-3.49c-0.21-3.7-2.93-5.72-6.38-5.72c-4.85,0-8.4,3.91-8.4,8.75c0,4.81,3.07,8.47,8.47,8.47
			C131.31,183.78,133.29,182.32,134.48,180.29 M116.21,171.71c1.29-2.86,1.71-3.49,3.07-3.84v-0.98h-6.87v0.98
			c2.27,0.49,2.51,1.64,1.46,4.08l-2.65,6.31l-3.28-7.43c-0.7-1.64-0.59-2.58,1.81-2.86v-1.08h-9.17v1.08
			c1.08,0.28,1.53,0.73,2.44,2.69l5.96,12.94h1.81L116.21,171.71z M100.27,182.35c-2.16-0.31-2.48-0.77-2.48-2.69v-13.36h-1.71
			l-5.13,3.35v0.77h2.48v9.24c0,1.92-0.35,2.37-2.48,2.69v1.08h9.31V182.35z M95.32,163.69c1.46,0,2.65-1.19,2.65-2.69
			c0-1.33-1.01-2.41-2.37-2.41c-1.53,0-2.69,1.19-2.69,2.65C92.91,162.61,93.92,163.69,95.32,163.69 M77.71,182.35
			c-1.99-0.28-2.3-0.77-2.3-2.69v-8.06c1.74-1.57,3.17-2.34,4.43-2.34c1.71,0,2.2,0.87,2.2,2.44v7.95c0,1.92-0.31,2.41-2.3,2.69
			v1.08h8.96v-1.08c-1.99-0.28-2.3-0.77-2.3-2.69v-8.33c0-2.79-1.19-4.78-4.71-4.78c-2.16,0-4.29,1.33-6.38,3.1v-3.35h-1.6
			l-5.06,3.31v0.77h2.41v9.28c0,1.92-0.31,2.41-2.3,2.69v1.08h8.96V182.35z M39.7,161.84v10.46c0,6.77,3.52,11.47,12.41,11.47
			s12.41-4.71,12.41-11.33v-8.4c0-4.08,1.15-5.13,3.14-5.68v-1.08h-8.44v1.08c1.99,0.56,3.14,1.6,3.14,5.68v8.4
			c0,5.89-3.1,8.61-8.96,8.61c-5.82,0-8.96-2.72-8.96-8.61v-10.6c0-2.65,0.77-3.1,2.96-3.42v-1.15H36.8v1.15
			C39,158.74,39.7,159.19,39.7,161.84"/>
		<path class="st3" d="M241.02,144.57c-1.99-0.28-2.3-0.77-2.3-2.69v-8.06c1.74-1.57,3.17-2.34,4.43-2.34c1.71,0,2.2,0.87,2.2,2.44
			v7.95c0,1.92-0.31,2.41-2.3,2.69v1.08H252v-1.08c-1.99-0.28-2.3-0.77-2.3-2.69v-8.33c0-2.79-1.19-4.78-4.71-4.78
			c-2.16,0-4.29,1.33-6.38,3.1v-3.35H237l-5.06,3.31v0.77h2.41v9.28c0,1.92-0.31,2.41-2.3,2.69v1.08h8.96V144.57z M227.14,144.57
			c-2.27-0.35-2.58-0.84-2.58-3v-7.18c0.7-1.26,1.36-2.16,2.06-2.79c0,1.36,0.94,2.23,2.13,2.23s2.34-0.94,2.34-2.75
			c0-1.53-0.87-2.48-2.41-2.48c-1.71,0-3.03,1.43-4.29,3.45v-3.52h-1.53l-5.06,3.31v0.77h2.41v9.28c0,1.92-0.31,2.41-2.3,2.69v1.08
			h9.24V144.57z M205.31,135.09c0-2.82,1.19-4.5,3.49-4.5c1.6,0,2.62,1.15,3.03,3.42l-6.49,2.23
			C205.31,135.85,205.31,135.47,205.31,135.09 M216.22,142.51l-0.94-0.73c-0.94,1.08-2.37,1.81-4.01,1.81
			c-3.21,0-5.02-2.44-5.68-5.61l10.46-3.49c-0.21-3.7-2.93-5.72-6.38-5.72c-4.85,0-8.4,3.91-8.4,8.75c0,4.81,3.07,8.47,8.47,8.47
			C213.05,146,215.04,144.54,216.22,142.51 M200.11,144.08l-0.52-1.12c-0.94,0.42-1.78,0.63-2.51,0.63c-1.64,0-2.06-0.84-2.06-1.99
			v-10.5h4.43v-1.99h-4.43v-3.24h-0.63l-6.28,4.11v1.12h2.55v11.4c0,2.27,1.29,3.49,3.84,3.49
			C196.48,146,198.44,145.34,200.11,144.08 M186.93,140.53c0-3.24-2.69-4.25-5.2-5.06c-2.48-0.8-4.18-1.33-4.18-3.14
			c0-0.98,0.73-1.88,2.16-1.88c1.78,0,3.35,1.08,5.23,3.21l0.91-0.42l-1.33-4.32h-0.56l-0.63,0.52c-0.98-0.42-2.09-0.66-3.28-0.66
			c-3.7,0-6.1,2.13-6.1,5.34c0,3.24,2.69,4.18,5.2,5.02c2.48,0.84,4.18,1.33,4.18,3.17c0,1.15-0.87,2.02-2.55,2.02
			c-2.34,0-4.11-1.53-6.24-4.25l-0.94,0.35l1.36,5.44h0.59l1.01-0.73c1.15,0.56,2.44,0.87,3.87,0.87
			C184,146,186.93,143.91,186.93,140.53 M160.08,141.19c0-1.78,0.8-2.62,4.88-3.73v5.06c-0.98,0.77-1.85,1.12-2.72,1.12
			C160.88,143.63,160.08,142.9,160.08,141.19 M167.75,145.86c1.5,0,3.1-0.7,4.15-1.43l-0.31-0.98c-1.71,0.31-2.34,0.07-2.34-1.08
			v-9.31c0-2.79-1.22-4.29-5.16-4.29c-4.43,0-7.67,2.37-7.67,4.6c0,1.08,0.73,1.99,1.99,1.99c1.43,0,2.13-0.94,2.34-1.88
			c0.21-1.08-0.14-1.88-0.66-2.34c0.87-0.42,1.74-0.63,2.65-0.63c1.5,0,2.23,0.52,2.23,1.88v3.49c-6.24,1.53-9.1,2.89-9.1,6.21
			c0,2.55,1.64,3.91,4.22,3.91c1.64,0,3.52-0.7,5.13-1.95C165.45,145.2,166.25,145.86,167.75,145.86 M143.02,135.09
			c0-2.82,1.19-4.5,3.49-4.5c1.6,0,2.62,1.15,3.03,3.42l-6.49,2.23C143.02,135.85,143.02,135.47,143.02,135.09 M153.94,142.51
			l-0.94-0.73c-0.94,1.08-2.37,1.81-4.01,1.81c-3.21,0-5.02-2.44-5.68-5.61l10.46-3.49c-0.21-3.7-2.93-5.72-6.38-5.72
			c-4.85,0-8.4,3.91-8.4,8.75c0,4.81,3.07,8.47,8.47,8.47C150.77,146,152.75,144.54,153.94,142.51 M126.18,144.57
			c-1.99-0.28-2.3-0.77-2.3-2.69v-8.09c1.67-1.53,2.96-2.3,4.43-2.3c1.71,0,2.2,0.87,2.2,2.44v7.95c0,1.92-0.31,2.41-2.3,2.69v1.08
			h8.96v-1.08c-1.99-0.28-2.3-0.77-2.3-2.69v-8.33c0-2.79-1.19-4.78-4.71-4.78c-2.13,0-4.22,1.26-6.28,3v-13.81h-1.29l-5.61,3.66
			v0.77h2.55v19.49c0,1.92-0.31,2.41-2.3,2.69v1.08h8.96V144.57z M116.17,144.08l-0.52-1.12c-0.94,0.42-1.78,0.63-2.51,0.63
			c-1.64,0-2.06-0.84-2.06-1.99v-10.5h4.43v-1.99h-4.43v-3.24h-0.63l-6.28,4.11v1.12h2.55v11.4c0,2.27,1.29,3.49,3.84,3.49
			C112.54,146,114.5,145.34,116.17,144.08 M99.08,144.57c-2.27-0.35-2.58-0.84-2.58-3v-7.18c0.7-1.26,1.36-2.16,2.06-2.79
			c0,1.36,0.94,2.23,2.13,2.23c1.19,0,2.34-0.94,2.34-2.75c0-1.53-0.87-2.48-2.41-2.48c-1.71,0-3.03,1.43-4.29,3.45v-3.52H94.8
			l-5.06,3.31v0.77h2.41v9.28c0,1.92-0.31,2.41-2.3,2.69v1.08h9.24V144.57z M73.91,135.61c0-3.14,1.36-5.13,4.22-5.13
			c3.7,0,4.78,4.53,4.78,8.68c0,3.14-1.36,5.13-4.22,5.13C74.99,144.29,73.91,139.76,73.91,135.61 M87.26,137.18
			c0-4.57-3.07-8.4-8.68-8.4c-5.65,0-9.03,4.08-9.03,8.82c0,4.57,3.07,8.4,8.68,8.4C83.88,146,87.26,141.92,87.26,137.18
			 M64.53,126.26c0-4.08,1.15-5.13,3.14-5.68v-1.08h-8.44v1.08c1.99,0.56,3.14,1.6,3.14,5.68v12.28l-17.79-17.96
			c-0.98-0.98-1.36-1.08-1.99-1.08H36v1.08c1.43,0.14,2.27,0.7,3.91,2.27c0.52,0.49,1.01,1.08,1.01,2.06v13.98
			c0,4.08-1.15,5.13-3.14,5.68v1.08h8.44v-1.08c-1.99-0.56-3.14-1.6-3.14-5.68V125.7l20.02,20.12h1.43V126.26z"/>
	</g>
</g>
</svg>
